#!OML:ASF F:\VICON\USERDATA\INSTALL\rory3\rory3.ASF
:FULLY-SPECIFIED
:DEGREES
249
root 0.551886 16.4205 -20.1576 -160.85 15.7649 182.598
lowerback 7.87641 -4.40721 -4.14478
upperback -0.56528 -6.0386 -7.79787
thorax -5.43524 -2.70791 -5.14634
lowerneck -6.7169 -12.112 -14.5978
upperneck 34.4901 -18.9537 19.0176
head 17.4857 -7.04876 8
rclavicle -1.11319e-014 -6.04305e-014
rhumerus 330.098 -66.4435 -377.848
rradius 7.20059
rwrist 53.5083
rhand -2.52024 16.2788
rfingers 7.12502
rthumb 23.1743 -12.3471
lclavicle -1.11319e-014 -6.04305e-014
lhumerus 36.9889 -25.6824 34.0175
lradius 18.5102
lwrist -33.4484
lhand -0.794799 30.1375
lfingers 7.12502
lthumb 24.8289 58.5455
rfemur -44.2279 28.527 381.858
rtibia 46.0063
rfoot 170.998 171.641
rtoes 30.1681
lfemur -101.043 53.2712 -36.8868
ltibia 122.531
lfoot 40.0803 50.1202
ltoes 41.6571
250
root 0.493617 16.4826 -20.155 -161.639 19.8359 182.256
lowerback 7.5075 -4.1646 -5.21243
upperback -1.43049 -5.81587 -8.28768
thorax -6.07715 -2.53449 -5.12442
lowerneck -6.15599 -11.95 -14.5985
upperneck 35.537 -18.5166 18.1095
head 17.6395 -6.94485 7.77927
rclavicle 6.2816e-014 -2.8625e-014
rhumerus 334.153 -60.9093 -382.525
rradius 7.68574
rwrist 48.614
rhand -1.82106 15.8088
rfingers 7.12502
rthumb 23.845 -12.7312
lclavicle 6.2816e-014 -2.8625e-014
lhumerus 36.2287 -27.5605 34.2195
lradius 18.3452
lwrist -33.6338
lhand -0.664905 29.8794
lfingers 7.12502
lthumb 24.9534 58.2702
rfemur -42.6818 27.9688 382.846
rtibia 45.4151
rfoot 172.469 171.619
rtoes 30.6193
lfemur -102.045 55.0464 -38.0782
ltibia 124.182
lfoot 38.2894 51.1336
ltoes 40.839
251
root 0.431559 16.5426 -20.1629 -161.865 23.4087 182.584
lowerback 6.63191 -3.98027 -5.1862
upperback -2.31923 -5.55746 -8.56428
thorax -6.54639 -2.40286 -5.51692
lowerneck -5.16405 -11.9312 -14.8159
upperneck 37.0556 -18.1608 16.9007
head 17.9829 -6.94065 7.49498
rclavicle -4.13472e-014 -3.18055e-015
rhumerus 335.668 -55.0267 -384.543
rradius 8.28148
rwrist 42.668
rhand -1.26867 17.8434
rfingers 7.12502
rthumb 24.3747 -10.6264
lclavicle -4.13472e-014 -3.18055e-015
lhumerus 35.3438 -29.4236 34.864
lradius 18.307
lwrist -33.6667
lhand -0.837182 29.9317
lfingers 7.12502
lthumb 24.7883 58.3453
rfemur -41.335 27.0673 384.483
rtibia 44.8263
rfoot 173.669 171.625
rtoes 32.3731
lfemur -103.974 56.759 -38.9587
ltibia 126.034
lfoot 30.6024 52.9063
ltoes 36.4831
252
root 0.362648 16.6084 -20.1768 -162.352 26.8512 183.045
lowerback 6.25095 -3.77238 -4.90404
upperback -3.12662 -5.30447 -8.70367
thorax -7.22395 -2.29171 -5.88265
lowerneck -4.78847 -11.7488 -15.0666
upperneck 37.7666 -17.747 16.4143
head 18.1449 -6.84913 7.47811
rclavicle -2.14687e-014 5.725e-014
rhumerus 337.008 -49.258 -386.454
rradius 9.07232
rwrist 36.6764
rhand -0.341231 18.4114
rfingers 7.12502
rthumb 25.2635 -9.93586
lclavicle -2.14687e-014 5.725e-014
lhumerus 33.5003 -29.672 37.3935
lradius 18.2861
lwrist -35.7103
lhand -0.272455 29.5071
lfingers 7.12502
lthumb 25.3294 57.8451
rfemur -39.4578 25.8569 386.411
rtibia 44.1895
rfoot 174.671 171.485
rtoes 35.1693
lfemur -104.831 58.5735 -38.9171
ltibia 127.694
lfoot 16.7428 55.9465
ltoes 37.9082
253
root 0.294986 16.6584 -20.1723 -163.002 30.4798 183.029
lowerback 5.04999 -4.24975 -5.14787
upperback -2.42858 -5.72072 -9.44359
thorax -5.87206 -2.4883 -6.56483
lowerneck -8.12402 -11.6037 -12.6671
upperneck 38.5431 -17.7281 15.3103
head 18.9398 -6.47219 6.42082
rclavicle 1.11319e-014 -1.46306e-013
rhumerus 343.607 -46.5059 -394.768
rradius 8.29438
rwrist 31.3599
rhand -1.25158 17.4725
rfingers 7.12502
rthumb 24.3911 -10.9951
lclavicle 1.11319e-014 -1.46306e-013
lhumerus 33.562 -28.4071 36.1885
lradius 18.3439
lwrist -35.5558
lhand 0.133266 29.3226
lfingers 7.12502
lthumb 25.718 57.605
rfemur -37.9846 25.2713 387.616
rtibia 43.6864
rfoot 175.911 170.641
rtoes 36.2392
lfemur -104.997 59.8926 -38.6873
ltibia 128.998
lfoot 29.7892 50.3568
ltoes 28.8724
254
root 0.226855 16.699 -20.1709 -163.407 34.1373 183.121
lowerback 4.89867 -3.56946 -5.06366
upperback -3.69701 -4.91811 -9.52209
thorax -7.10149 -2.09107 -6.80871
lowerneck -5.78428 -11.6797 -14.32
upperneck 38.7357 -17.6652 15.4893
head 18.6984 -6.77306 6.94027
rclavicle 3.22031e-014 -1.30403e-013
rhumerus 343.133 -40.9283 -394.621
rradius 8.57147
rwrist 25.2825
rhand -0.68392 17.931
rfingers 7.12502
rthumb 24.9351 -10.4623
lclavicle 3.22031e-014 -1.30403e-013
lhumerus 32.0067 -30.4608 39.1626
lradius 18.5136
lwrist -36.1086
lhand 0.28554 28.8031
lfingers 7.12502
lthumb 25.8638 57.0642
rfemur -36.8623 24.6619 388.791
rtibia 43.2943
rfoot 177.328 169.716
rtoes 35.5592
lfemur -104.773 61.0251 -37.8973
ltibia 129.997
lfoot 37.2564 45.7255
ltoes 26.9202
255
root 0.161263 16.7289 -20.1627 -163.614 37.6486 183.313
lowerback 4.14674 -4.14635 -5.48648
upperback -3.66811 -5.62029 -9.73674
thorax -6.67931 -2.41797 -6.76438
lowerneck -7.5888 -11.113 -12.3929
upperneck 38.8361 -16.9868 14.6876
head 18.6173 -6.25243 6.24799
rclavicle 2.90226e-014 1.33583e-013
rhumerus 347.939 -36.5489 -400.455
rradius 7.76915
rwrist 19.5729
rhand -0.933287 17.4183
rfingers 7.12502
rthumb 24.6962 -11.0079
lclavicle 2.90226e-014 1.33583e-013
lhumerus 30.5927 -29.4659 39.044
lradius 18.9396
lwrist -35.6311
lhand 0.164835 28.5694
lfingers 7.12502
lthumb 25.7482 56.8473
rfemur -35.874 23.5961 390.122
rtibia 43.0148
rfoot 178.11 168.688
rtoes 36.7856
lfemur -104.397 61.9466 -36.4853
ltibia 130.851
lfoot 40.7582 44.5867
ltoes 30.8698
256
root 0.0908459 16.7581 -20.1595 -164.249 41.0885 183.012
lowerback 3.74281 -4.20302 -5.92565
upperback -4.16288 -5.72023 -9.79579
thorax -6.95353 -2.43993 -6.60014
lowerneck -5.92209 -10.6343 -13.1069
upperneck 37.7041 -16.4117 15.2925
head 17.535 -6.20452 6.72754
rclavicle -7.0171e-014 -4.77083e-014
rhumerus 348.087 -30.9969 -401.55
rradius 10.2273
rwrist 12.5768
rhand 0.540761 15.2117
rfingers 7.12502
rthumb 26.1082 -13.0136
lclavicle -7.0171e-014 -4.77083e-014
lhumerus 29.0452 -29.8383 40.5025
lradius 19.4083
lwrist -34.9355
lhand 0.142752 28.0673
lfingers 7.12502
lthumb 25.7271 56.3483
rfemur -34.7386 21.8598 391.149
rtibia 42.7875
rfoot 178.688 167.845
rtoes 38.1154
lfemur -102.339 63.1704 -34.2905
ltibia 131.753
lfoot 22.1496 55.1153
ltoes 47.1706
257
root 0.0285718 16.7886 -20.1462 -165.49 44.4139 182.024
lowerback 2.94691 -4.11875 -6.12839
upperback -4.05795 -5.45121 -10.6509
thorax -6.43867 -2.29293 -7.50576
lowerneck -5.54083 -10.6902 -12.976
upperneck 36.9563 -16.8779 16.0114
head 17.217 -6.37764 6.89629
rclavicle -6.14245e-014 1.59028e-014
rhumerus 348.027 -12.2836 -405.617
rradius 14.276
rwrist -8.69992
rhand -0.410857 11.1639
rfingers 7.12502
rthumb 25.1968 -17.1928
lclavicle -6.14245e-014 1.59028e-014
lhumerus 29.81 -31.5526 39.8335
lradius 19.4243
lwrist -33.6623
lhand 0.0358184 27.6804
lfingers 7.12502
lthumb 25.6247 55.9762
rfemur -33.4886 20.7192 391.558
rtibia 42.4851
rfoot 178.848 166.26
rtoes 39.6699
lfemur -99.7873 63.3498 -32.1289
ltibia 132.384
lfoot 27.3162 53.5472
ltoes 45.5344
